<svg xmlns="http://www.w3.org/2000/svg" xmlns:svg="http://www.w3.org/2000/svg" id="svg2" width="16" height="16" version="1.0"><metadata id="metadata7"/><g id="layer1"><path style="fill:none;fill-rule:evenodd;stroke:#000;stroke-width:1px;stroke-linecap:butt;stroke-linejoin:miter;stroke-opacity:1" id="path3530" d="M 1.1168038,0.65608633 L 1.1168038,14.98031 L 15.004017,14.98031"/><path style="fill:#d42aff;stroke:#f55;stroke-width:.5;stroke-linecap:butt;stroke-linejoin:miter;stroke-miterlimit:4;stroke-opacity:1;stroke-dasharray:none" id="path2909" d="m 6.7296133,3.1072959 3.2274679,-0.06867 0,0"/><path style="fill:#d42aff;stroke:#f55;stroke-width:.5;stroke-linecap:butt;stroke-linejoin:miter;stroke-miterlimit:4;stroke-opacity:1;stroke-dasharray:none" id="path2909-8" d="m 6.7296133,7.4849785 3.2274679,-0.06867 0,0"/><path style="fill:#d42aff;stroke:#f55;stroke-width:.5;stroke-linecap:butt;stroke-linejoin:miter;stroke-miterlimit:4;stroke-opacity:1;stroke-dasharray:none" id="path2909-7" d="m 6.7296133,11.862662 3.2274679,-0.06867 0,0"/><path style="fill:#d42aff;stroke:#f55;stroke-width:.5;stroke-linecap:butt;stroke-linejoin:miter;stroke-miterlimit:4;stroke-opacity:1;stroke-dasharray:none" id="path2909-76" d="m 2.8660289,4.2383217 2.2336075,-2.3307214 0,0"/><path style="fill:#d42aff;stroke:#f55;stroke-width:.5;stroke-linecap:butt;stroke-linejoin:miter;stroke-miterlimit:4;stroke-opacity:1;stroke-dasharray:none" id="path2909-8-4" d="m 2.8660289,8.6160044 2.2336075,-2.3307214 0,0"/><path style="fill:#d42aff;stroke:#f55;stroke-width:.5;stroke-linecap:butt;stroke-linejoin:miter;stroke-miterlimit:4;stroke-opacity:1;stroke-dasharray:none" id="path2909-7-3" d="m 2.8660289,12.993687 2.2336075,-2.330722 0,0"/><path style="fill:#d42aff;stroke:#f55;stroke-width:.5;stroke-linecap:butt;stroke-linejoin:miter;stroke-miterlimit:4;stroke-opacity:1;stroke-dasharray:none" id="path2909-76-3" d="m 11.587059,4.2383215 2.233607,-2.3307214 0,0"/><path style="fill:#d42aff;stroke:#f55;stroke-width:.5;stroke-linecap:butt;stroke-linejoin:miter;stroke-miterlimit:4;stroke-opacity:1;stroke-dasharray:none" id="path2909-8-4-6" d="m 11.587059,8.6160045 2.233607,-2.330722 0,0"/><path style="fill:#d42aff;stroke:#f55;stroke-width:.5;stroke-linecap:butt;stroke-linejoin:miter;stroke-miterlimit:4;stroke-opacity:1;stroke-dasharray:none" id="path2909-7-3-8" d="m 11.587059,12.993688 2.233607,-2.330722 0,0"/></g></svg>