<svg xmlns="http://www.w3.org/2000/svg" xmlns:svg="http://www.w3.org/2000/svg" id="svg2" width="16" height="16" version="1.0"><metadata id="metadata7"/><g id="layer1"><path style="fill:#eb20ff;fill-opacity:1;fill-rule:evenodd;stroke:none;stroke-width:.5;stroke-linecap:butt;stroke-linejoin:miter;stroke-miterlimit:4;stroke-dasharray:none;stroke-opacity:1" id="path4202" d="M 6.5922746,6.0772533 A 0.44635195,0.44635195 0 1 1 5.6995707,6.0772533 A 0.44635195,0.44635195 0 1 1 6.5922746,6.0772533 z" transform="matrix(1.5384615,0,0,1.5384615,5.5463967e-2,-6.2594916)"/><path style="fill:#eb20ff;fill-opacity:1;fill-rule:evenodd;stroke:none;stroke-width:.5;stroke-linecap:butt;stroke-linejoin:miter;stroke-miterlimit:4;stroke-dasharray:none;stroke-opacity:1" id="path4204" d="M 6.5922746,6.0772533 A 0.44635195,0.44635195 0 1 1 5.6995707,6.0772533 A 0.44635195,0.44635195 0 1 1 6.5922746,6.0772533 z" transform="matrix(1.5384615,0,0,1.5384615,2.138103,-2.358121)"/><path style="fill:#eb20ff;fill-opacity:1;fill-rule:evenodd;stroke:none;stroke-width:.5;stroke-linecap:butt;stroke-linejoin:miter;stroke-miterlimit:4;stroke-dasharray:none;stroke-opacity:1" id="path4206" d="M 6.5922746,6.0772533 A 0.44635195,0.44635195 0 1 1 5.6995707,6.0772533 A 0.44635195,0.44635195 0 1 1 6.5922746,6.0772533 z" transform="matrix(1.5384615,0,0,1.5384615,-2.5117307,-4.1238346)"/><path style="fill:#eb20ff;fill-opacity:1;fill-rule:evenodd;stroke:none;stroke-width:.5;stroke-linecap:butt;stroke-linejoin:miter;stroke-miterlimit:4;stroke-dasharray:none;stroke-opacity:1" id="path4208" d="M 6.5922746,6.0772533 A 0.44635195,0.44635195 0 1 1 5.6995707,6.0772533 A 0.44635195,0.44635195 0 1 1 6.5922746,6.0772533 z" transform="matrix(1.5384615,0,0,1.5384615,-1.0609209,0.5828869)"/><path style="fill:#eb20ff;fill-opacity:1;fill-rule:evenodd;stroke:none;stroke-width:.5;stroke-linecap:butt;stroke-linejoin:miter;stroke-miterlimit:4;stroke-dasharray:none;stroke-opacity:1" id="path4210" d="M 6.5922746,6.0772533 A 0.44635195,0.44635195 0 1 1 5.6995707,6.0772533 A 0.44635195,0.44635195 0 1 1 6.5922746,6.0772533 z" transform="matrix(1.5384615,0,0,1.5384615,-4.1569405,-1.9184973)"/><path style="fill:#eb20ff;fill-opacity:1;fill-rule:evenodd;stroke:none;stroke-width:.5;stroke-linecap:butt;stroke-linejoin:miter;stroke-miterlimit:4;stroke-dasharray:none;stroke-opacity:1" id="path4212" d="M 6.5922746,6.0772533 A 0.44635195,0.44635195 0 1 1 5.6995707,6.0772533 A 0.44635195,0.44635195 0 1 1 6.5922746,6.0772533 z" transform="matrix(1.5384615,0,0,1.5384615,-4.0019288,2.9009888)"/><path style="fill:#eb20ff;fill-opacity:1;fill-rule:evenodd;stroke:none;stroke-width:.5;stroke-linecap:butt;stroke-linejoin:miter;stroke-miterlimit:4;stroke-dasharray:none;stroke-opacity:1" id="path4214" d="M 6.5922746,6.0772533 A 0.44635195,0.44635195 0 1 1 5.6995707,6.0772533 A 0.44635195,0.44635195 0 1 1 6.5922746,6.0772533 z" transform="matrix(1.5384615,0,0,1.5384615,3.5576101,-5.8818092)"/><path style="fill:#eb20ff;fill-opacity:1;fill-rule:evenodd;stroke:none;stroke-width:.5;stroke-linecap:butt;stroke-linejoin:miter;stroke-miterlimit:4;stroke-dasharray:none;stroke-opacity:1" id="path4216" d="M 6.5922746,6.0772533 A 0.44635195,0.44635195 0 1 1 5.6995707,6.0772533 A 0.44635195,0.44635195 0 1 1 6.5922746,6.0772533 z" transform="matrix(1.5384615,0,0,1.5384615,-6.5485922,1.6277437)"/><path style="fill:none;fill-rule:evenodd;stroke:#187e29;stroke-width:1px;stroke-linecap:butt;stroke-linejoin:miter;stroke-opacity:1" id="path4200" d="M 1.0987124,14.986619 L 13.184549,1.9914163 L 13.184549,1.9914163 L 13.184549,1.9914163"/><path style="fill:none;fill-rule:evenodd;stroke:#000;stroke-width:1px;stroke-linecap:butt;stroke-linejoin:miter;stroke-opacity:1" id="path3530" d="M 1.1168038,0.65608633 L 1.1168038,14.98031 L 15.004017,14.98031"/></g></svg>