<svg xmlns="http://www.w3.org/2000/svg" xmlns:svg="http://www.w3.org/2000/svg" id="svg2" width="16" height="16" version="1.0"><metadata id="metadata7"/><g id="layer1"><path style="fill:none;stroke:#000;stroke-width:1px;stroke-linecap:butt;stroke-linejoin:miter;stroke-opacity:1" id="path2993" d="m 1.417197,1.342134 0,13.159687 13.402634,-0.04049"/><path style="fill:none;stroke:#000;stroke-width:1px;stroke-linecap:butt;stroke-linejoin:miter;stroke-opacity:1" id="path2995" d="M 1.8626018,13.894451 8.6246558,7.3348527"/><path style="fill:#00f;stroke:none" id="path2984" d="m 7.5313896,4.8851261 a 1.4374427,1.4374427 0 1 1 -2.8748853,0 1.4374427,1.4374427 0 1 1 2.8748853,0 z" transform="translate(-1.1337576,0.97179223)"/><path style="fill:#d4aa00;stroke:none" id="path2984-8" d="m 7.5313896,4.8851261 a 1.4374427,1.4374427 0 1 1 -2.8748853,0 1.4374427,1.4374427 0 1 1 2.8748853,0 z" transform="translate(6.385635,3.7619372)"/><path style="fill:#4a0;stroke:none" id="path2984-8-4" d="m 7.5313896,4.8851261 a 1.4374427,1.4374427 0 1 1 -2.8748853,0 1.4374427,1.4374427 0 1 1 2.8748853,0 z" transform="translate(1.2754775,5.8105079)"/><path style="fill:#ff2a2a;stroke:none" id="path2984-8-2" d="m 7.5313896,4.8851261 a 1.4374427,1.4374427 0 1 1 -2.8748853,0 1.4374427,1.4374427 0 1 1 2.8748853,0 z" transform="translate(2.4902177,2.2877611)"/><path style="fill:#93a7ac;stroke:none" id="path2984-8-2-6" d="m 7.5313896,4.8851261 a 1.4374427,1.4374427 0 1 1 -2.8748853,0 1.4374427,1.4374427 0 1 1 2.8748853,0 z" transform="translate(2.2877611,-1.1135119)"/></g></svg>