<svg xmlns="http://www.w3.org/2000/svg" xmlns:svg="http://www.w3.org/2000/svg" id="svg2" width="16" height="16" version="1.0"><metadata id="metadata7"/><g id="layer1"><path style="fill:none;stroke:#000;stroke-width:1px;stroke-linecap:butt;stroke-linejoin:miter;stroke-opacity:1" id="path2993" d="m 1.417197,1.342134 0,13.159687 13.402634,-0.04049"/><path style="fill:none;stroke:#000;stroke-width:1px;stroke-linecap:butt;stroke-linejoin:miter;stroke-opacity:1" id="path2995" d="M 1.8626018,13.894451 8.6246558,7.3348527"/><path style="fill:#ff7f2a;stroke:none" id="path3765" d="m 13.645583,8.549593 a 5.1424007,3.8061862 0 1 1 -10.2848013,0 5.1424007,3.8061862 0 1 1 10.2848013,0 z" transform="matrix(1.1968504,0,0,1.3617022,-1.6738548,-4.9304407)"/><path style="fill:#ffd42a;stroke:none" id="path3767" d="m 11.74249,4.6421781 a 2.4294806,1.9233388 0 1 1 -4.8589613,0 2.4294806,1.9233388 0 1 1 4.8589613,0 z" transform="matrix(1.8886499,0,0,1.9282813,-9.0858315,-1.8734661)"/><path style="fill:#f60;stroke:none" id="path3769" d="m 10.325293,7.6182919 a 2.409235,0.93130088 0 1 1 -4.8184704,0 2.409235,0.93130088 0 1 1 4.8184704,0 z" transform="matrix(1.5199541,0,0,2.8409706,-3.5288617,-15.198544)"/><path style="fill:#ffd42a;stroke:none" id="path3771" d="m 10.163327,8.3066444 a 1.9435844,0.72884417 0 1 1 -3.8871687,0 1.9435844,0.72884417 0 1 1 3.8871687,0 z" transform="matrix(1.3960573,0,0,2.2433149,-2.9720494,-11.728255)"/><path style="fill:#f60;stroke:none" id="path3773" d="m -3.0368506,5.9379015 a 1.35646,0.50614178 0 1 1 -2.7129199,0 1.35646,0.50614178 0 1 1 2.7129199,0 z" transform="matrix(1.0896057,0,0,1.1742739,13.290158,-0.58420778)"/></g></svg>