<svg xmlns="http://www.w3.org/2000/svg" xmlns:svg="http://www.w3.org/2000/svg" id="svg2" width="16" height="16" version="1.0"><metadata id="metadata7"/><g id="layer1"><g id="g3213"><path id="path3161" d="M 8.0185049,10.967731 L 3.829327,11.029591" style="fill:none;fill-rule:evenodd;stroke:#000;stroke-width:.48669741;stroke-linecap:butt;stroke-linejoin:miter;stroke-miterlimit:4;stroke-dasharray:none;stroke-opacity:1"/><path id="path2389" d="M 5.923916,8.0852597 L 5.9724727,13.717836" style="fill:none;fill-rule:evenodd;stroke:#000;stroke-width:.5;stroke-linecap:butt;stroke-linejoin:miter;stroke-miterlimit:4;stroke-dasharray:none;stroke-opacity:1"/><path id="path3526" d="M 5.9724725,4.3706732 A 1.5295357,1.5295357 0 1 1 2.9134012,4.3706732 A 1.5295357,1.5295357 0 1 1 5.9724725,4.3706732 z" transform="matrix(0.7271384,0,0,0.7271384,2.6932858,7.7720199)" style="fill:#ebaa81;fill-opacity:1;stroke:#000;stroke-width:.5;stroke-linecap:butt;stroke-linejoin:miter;stroke-miterlimit:4;stroke-dasharray:none;stroke-opacity:1"/></g><path style="fill:none;fill-rule:evenodd;stroke:#000;stroke-width:1px;stroke-linecap:butt;stroke-linejoin:miter;stroke-opacity:1" id="path3530" d="M 1.1168038,0.65608633 L 1.1168038,14.98031 L 15.004017,14.98031"/><g id="g3218" transform="translate(3.9330919,-7.0892767)"><path id="path3220" d="M 8.0185049,10.967731 L 3.829327,11.029591" style="fill:none;fill-rule:evenodd;stroke:#000;stroke-width:.48669741;stroke-linecap:butt;stroke-linejoin:miter;stroke-miterlimit:4;stroke-dasharray:none;stroke-opacity:1"/><path id="path3222" d="M 5.923916,8.0852597 L 5.9724727,13.717836" style="fill:none;fill-rule:evenodd;stroke:#000;stroke-width:.5;stroke-linecap:butt;stroke-linejoin:miter;stroke-miterlimit:4;stroke-dasharray:none;stroke-opacity:1"/><path id="path3224" d="M 5.9724725,4.3706732 A 1.5295357,1.5295357 0 1 1 2.9134012,4.3706732 A 1.5295357,1.5295357 0 1 1 5.9724725,4.3706732 z" transform="matrix(0.7271384,0,0,0.7271384,2.6932858,7.7720199)" style="fill:#ebaa81;fill-opacity:1;stroke:#000;stroke-width:.5;stroke-linecap:butt;stroke-linejoin:miter;stroke-miterlimit:4;stroke-dasharray:none;stroke-opacity:1"/></g><g id="g3226" transform="translate(6.3123696,-1.4567009)"><path id="path3228" d="M 8.0185049,10.967731 L 3.829327,11.029591" style="fill:none;fill-rule:evenodd;stroke:#000;stroke-width:.48669741;stroke-linecap:butt;stroke-linejoin:miter;stroke-miterlimit:4;stroke-dasharray:none;stroke-opacity:1"/><path id="path3230" d="M 5.923916,8.0852597 L 5.9724727,13.717836" style="fill:none;fill-rule:evenodd;stroke:#000;stroke-width:.5;stroke-linecap:butt;stroke-linejoin:miter;stroke-miterlimit:4;stroke-dasharray:none;stroke-opacity:1"/><path id="path3232" d="M 5.9724725,4.3706732 A 1.5295357,1.5295357 0 1 1 2.9134012,4.3706732 A 1.5295357,1.5295357 0 1 1 5.9724725,4.3706732 z" transform="matrix(0.7271384,0,0,0.7271384,2.6932858,7.7720199)" style="fill:#ebaa81;fill-opacity:1;stroke:#000;stroke-width:.5;stroke-linecap:butt;stroke-linejoin:miter;stroke-miterlimit:4;stroke-dasharray:none;stroke-opacity:1"/></g><g id="g3234" transform="translate(-0.9711337,-6.263813)"><path id="path3236" d="M 8.0185049,10.967731 L 3.829327,11.029591" style="fill:none;fill-rule:evenodd;stroke:#000;stroke-width:.48669741;stroke-linecap:butt;stroke-linejoin:miter;stroke-miterlimit:4;stroke-dasharray:none;stroke-opacity:1"/><path id="path3238" d="M 5.923916,8.0852597 L 5.9724727,13.717836" style="fill:none;fill-rule:evenodd;stroke:#000;stroke-width:.5;stroke-linecap:butt;stroke-linejoin:miter;stroke-miterlimit:4;stroke-dasharray:none;stroke-opacity:1"/><path id="path3240" d="M 5.9724725,4.3706732 A 1.5295357,1.5295357 0 1 1 2.9134012,4.3706732 A 1.5295357,1.5295357 0 1 1 5.9724725,4.3706732 z" transform="matrix(0.7271384,0,0,0.7271384,2.6932858,7.7720199)" style="fill:#ebaa81;fill-opacity:1;stroke:#000;stroke-width:.5;stroke-linecap:butt;stroke-linejoin:miter;stroke-miterlimit:4;stroke-dasharray:none;stroke-opacity:1"/></g></g></svg>