<svg xmlns="http://www.w3.org/2000/svg" xmlns:svg="http://www.w3.org/2000/svg" id="svg2" width="16" height="16" version="1.0"><metadata id="metadata7"/><g id="layer1"><path style="fill:none;stroke:#000;stroke-width:1px;stroke-linecap:butt;stroke-linejoin:miter;stroke-opacity:1" id="path2993" d="m 1.417197,1.342134 0,13.159687 13.402634,-0.04049"/><path style="fill:none;stroke:#000;stroke-width:1px;stroke-linecap:butt;stroke-linejoin:miter;stroke-opacity:1" id="path2995" d="M 1.8626018,13.894451 8.6246558,7.3348527"/><g id="g154" style="fill:green;stroke:green;stroke-width:1;stroke-miterlimit:4;stroke-dasharray:none"><path id="path156" d="M 7.865012,0.69573195 7.6775105,6.9188793 2.8585114,9.0223493 3.0642501,2.193908 Z" points="7.678 6.919 2.859 9.022 3.064 2.194 7.865 .696" style="fill:#353564;fill-rule:evenodd;stroke:none;stroke-width:3.17421627px;stroke-linecap:butt;stroke-linejoin:round;stroke-opacity:1"/><path id="path160" d="M 7.865012,0.69573195 13.358235,3.0135682 13.132738,10.497787 7.6775105,6.9188793 Z" points="13.358 3.014 13.133 10.498 7.678 6.919 7.865 .696" style="fill:#8686bf;fill-rule:evenodd;stroke:none;stroke-width:3.17421627px;stroke-linecap:butt;stroke-linejoin:round;stroke-opacity:1"/><path id="path164" d="M 7.6775105,6.9188793 13.132738,10.497787 7.8716351,13.505431 2.8585114,9.0223493 Z" points="13.133 10.498 7.872 13.505 2.859 9.022 7.678 6.919" style="fill:#afafde;fill-rule:evenodd;stroke:none;stroke-width:3.17421627px;stroke-linecap:butt;stroke-linejoin:round;stroke-opacity:1"/><path id="path158" d="M 7.865012,0.69573195 13.358235,3.0135682 8.12404,5.1281445 3.0642501,2.193908 Z" points="13.358 3.014 8.124 5.128 3.064 2.194 7.865 .696" style="fill:#4d4d9f;fill-rule:evenodd;stroke:none;stroke-width:3.17421627px;stroke-linecap:butt;stroke-linejoin:round;stroke-opacity:1"/><path id="path162" d="M 13.358235,3.0135682 13.132738,10.497787 7.8716351,13.505431 8.12404,5.1281445 Z" points="13.133 10.498 7.872 13.505 8.124 5.128 13.358 3.014" style="fill:#d7d7ff;fill-rule:evenodd;stroke:none;stroke-width:3.17421627px;stroke-linecap:butt;stroke-linejoin:round;stroke-opacity:1"/><path id="path166" d="M 3.0642501,2.193908 8.12404,5.1281445 7.8716351,13.505431 2.8585114,9.0223493 Z" points="8.124 5.128 7.872 13.505 2.859 9.022 3.064 2.194" style="fill:#e9e9ff;fill-rule:evenodd;stroke:none;stroke-width:3.17421627px;stroke-linecap:butt;stroke-linejoin:round;stroke-opacity:1"/></g></g></svg>