<svg xmlns="http://www.w3.org/2000/svg" xmlns:svg="http://www.w3.org/2000/svg" id="svg2" width="16" height="16" version="1.0"><metadata id="metadata7"/><g id="layer1"><path style="fill:#ebaa81;fill-opacity:1;stroke:#000;stroke-width:.5;stroke-linecap:butt;stroke-linejoin:miter;stroke-miterlimit:4;stroke-opacity:1;stroke-dasharray:none" id="path3526" d="m 5.9724725,4.3706732 a 1.5295357,1.5295357 0 1 1 -3.0590713,0 1.5295357,1.5295357 0 1 1 3.0590713,0 z" transform="matrix(0.7271384,0,0,0.7271384,2.6932858,7.7720199)"/><path style="fill:none;fill-rule:evenodd;stroke:#000;stroke-width:1px;stroke-linecap:butt;stroke-linejoin:miter;stroke-opacity:1" id="path3530" d="M 1.1168038,0.65608633 L 1.1168038,14.98031 L 15.004017,14.98031"/><path style="fill:#ebaa81;fill-opacity:1;stroke:#000;stroke-width:.5;stroke-linecap:butt;stroke-linejoin:miter;stroke-miterlimit:4;stroke-opacity:1;stroke-dasharray:none" id="path3224" d="m 5.9724725,4.3706732 a 1.5295357,1.5295357 0 1 1 -3.0590713,0 1.5295357,1.5295357 0 1 1 3.0590713,0 z" transform="matrix(0.7271384,0,0,0.7271384,6.6263777,0.6827432)"/><path style="fill:#ebaa81;fill-opacity:1;stroke:#000;stroke-width:.5;stroke-linecap:butt;stroke-linejoin:miter;stroke-miterlimit:4;stroke-opacity:1;stroke-dasharray:none" id="path3232" d="m 5.9724725,4.3706732 a 1.5295357,1.5295357 0 1 1 -3.0590713,0 1.5295357,1.5295357 0 1 1 3.0590713,0 z" transform="matrix(0.7271384,0,0,0.7271384,9.0056554,6.315319)"/><path style="fill:#ebaa81;fill-opacity:1;stroke:#000;stroke-width:.5;stroke-linecap:butt;stroke-linejoin:miter;stroke-miterlimit:4;stroke-opacity:1;stroke-dasharray:none" id="path3240" d="m 5.9724725,4.3706732 a 1.5295357,1.5295357 0 1 1 -3.0590713,0 1.5295357,1.5295357 0 1 1 3.0590713,0 z" transform="matrix(0.7271384,0,0,0.7271384,1.7221521,1.5082069)"/></g></svg>