<svg xmlns="http://www.w3.org/2000/svg" xmlns:svg="http://www.w3.org/2000/svg" id="svg2" width="16" height="16" version="1.0"><metadata id="metadata7"/><g id="layer1"><path style="fill:#fff;stroke:#000;stroke-width:.69999999;stroke-linecap:butt;stroke-miterlimit:4;stroke-opacity:1;stroke-dasharray:none;stroke-dashoffset:0" id="path3764" d="m 18.369098,12.240343 a 7.0214591,7.0214591 0 1 1 -14.042918,0 7.0214591,7.0214591 0 1 1 14.042918,0 z" transform="translate(-3.3004287,-4.248927)"/><path style="fill:none;stroke:#dcdcdc;stroke-width:.5;stroke-linecap:square;stroke-linejoin:miter;stroke-miterlimit:4;stroke-opacity:1;stroke-dasharray:none" id="path3825-0" d="M 12.912841,3.1257845 3.1815789,12.857048"/><path style="fill:none;stroke:#dcdcdc;stroke-width:.5;stroke-linecap:square;stroke-linejoin:miter;stroke-miterlimit:4;stroke-opacity:1;stroke-dasharray:none" id="path3825-0-4" d="M 3.1815789,3.1257845 12.912841,12.857048"/><path style="fill:none;stroke:#1e90ff;stroke-width:.5;stroke-linecap:butt;stroke-linejoin:miter;stroke-miterlimit:4;stroke-opacity:1;stroke-dasharray:none" id="path3766" d="M 7.6909871,7.3476396 C 7.8459214,7.5645473 7.475039,7.6635025 7.3304722,7.6051505 6.9387053,7.4470203 6.9601538,6.9150331 7.1759652,6.6266098 7.5620011,6.1106882 8.3311292,6.1708983 8.7725317,6.5751067 9.4203076,7.1682987 9.3173423,8.2020508 8.721031,8.789699 7.9262418,9.5729418 6.619861,9.4252582 5.8884127,8.6351944 4.9679598,7.6409797 5.1612374,6.0586192 6.1459213,5.1845503 7.3385055,4.1259358 9.1985686,4.3652537 10.214591,5.5450628 11.411939,6.935427 11.126327,9.0741985 9.7510748,10.231759 8.1632922,11.568207 5.7451729,11.236144 4.4463533,9.6652382 2.9705518,7.8802748 3.3491688,5.1823751 5.1158775,3.7424908 7.0978576,2.1271583 10.075844,2.5524005 11.656651,4.515019 c 1.754995,2.1788784 1.283076,5.4371767 -0.875532,7.158799" transform="translate(-0.08443617,0.77964611)"/><path style="fill:none;stroke:#000;stroke-width:1;stroke-linecap:butt;stroke-miterlimit:4;stroke-opacity:1;stroke-dasharray:none;stroke-dashoffset:0" id="path3764-0" d="m 18.369098,12.240343 a 7.0214591,7.0214591 0 1 1 -14.042918,0 7.0214591,7.0214591 0 1 1 14.042918,0 z" transform="translate(-3.3004287,-4.248927)"/></g></svg>