<svg xmlns="http://www.w3.org/2000/svg" xmlns:svg="http://www.w3.org/2000/svg" id="svg2" width="16" height="16" version="1.0"><metadata id="metadata7"/><g id="layer1"><path style="fill:none;fill-rule:evenodd;stroke:#000;stroke-width:1px;stroke-linecap:butt;stroke-linejoin:miter;stroke-opacity:1" id="path3530" d="M 1.1168038,0.65608633 L 1.1168038,14.98031 L 15.004017,14.98031"/><path style="fill:none;fill-opacity:1;fill-rule:evenodd;stroke:#021bff;stroke-width:.5;stroke-linecap:butt;stroke-linejoin:miter;stroke-miterlimit:4;stroke-dasharray:none;stroke-dashoffset:0;stroke-opacity:1" id="path5503" d="M 11.67382,7.8626609 A 2.5751073,2.4377682 0 1 1 6.5236056,7.8626609 A 2.5751073,2.4377682 0 1 1 11.67382,7.8626609 z" transform="matrix(1.2120428,0.916223,-1.1377072,1.5050374,6.6040724,-12.856744)"/><path style="fill:none;fill-opacity:1;fill-rule:evenodd;stroke:#021bff;stroke-width:.5;stroke-linecap:butt;stroke-linejoin:miter;stroke-miterlimit:4;stroke-dasharray:none;stroke-dashoffset:0;stroke-opacity:1" id="path6014" d="M 11.67382,7.8626609 A 2.5751073,2.4377682 0 1 1 6.5236056,7.8626609 A 2.5751073,2.4377682 0 1 1 11.67382,7.8626609 z" transform="matrix(0.7331757,0.540925,-0.6882094,0.8885525,7.2208888,-4.3201248)"/><path style="fill:none;fill-opacity:1;fill-rule:evenodd;stroke:#021bff;stroke-width:.5;stroke-linecap:butt;stroke-linejoin:miter;stroke-miterlimit:4;stroke-dasharray:none;stroke-dashoffset:0;stroke-opacity:1" id="path6016" d="M 11.67382,7.8626609 A 2.5751073,2.4377682 0 1 1 6.5236056,7.8626609 A 2.5751073,2.4377682 0 1 1 11.67382,7.8626609 z" transform="matrix(0.4724592,0.3162427,-0.4434829,0.5194773,7.8405454,0.6947771)"/></g></svg>