<svg xmlns="http://www.w3.org/2000/svg" xmlns:svg="http://www.w3.org/2000/svg" id="svg1" width="60" height="60" x="0" y="0" _SVGFile__filename="oldscale/actions/recur.svg" version="1.0"><metadata id="metadata5"/><g id="g1799"><path id="path1822" d="M 29.999999,4.7375952 C 16.049323,4.7375952 4.7376489,16.042349 4.7376489,29.984492 C 4.7376489,43.926635 16.049323,55.262405 29.999999,55.262405 C 43.950676,55.262405 55.262351,43.926635 55.262351,29.984492 C 55.262351,16.042349 43.950676,4.7375952 29.999999,4.7375952 z" transform="matrix(1.001869,0.000000,0.000000,1.001869,-5.606995e-2,-5.607010e-2)" style="font-size:12;fill:none;fill-opacity:1;fill-rule:evenodd;stroke:#fff;stroke-width:8.1098427;stroke-linecap:round;stroke-linejoin:round;stroke-miterlimit:4;stroke-opacity:1;stroke-dasharray:none"/><path id="path701" d="M 29.999999,4.7375952 C 16.049323,4.7375952 4.7376489,16.042349 4.7376489,29.984492 C 4.7376489,43.926635 16.049323,55.262405 29.999999,55.262405 C 43.950676,55.262405 55.262351,43.926635 55.262351,29.984492 C 55.262351,16.042349 43.950676,4.7375952 29.999999,4.7375952 z" transform="matrix(1.001869,0.000000,0.000000,1.001869,-5.606995e-2,-5.607010e-2)" style="stroke-opacity:1;stroke-miterlimit:4;stroke-linejoin:round;stroke-linecap:round;stroke-width:3.1191688;stroke:#000;fill-rule:evenodd;fill-opacity:1;fill:#7fbb55;font-size:12"/><g id="g1853" transform="translate(1.390779,-1.213153)"><path id="path878" d="M 24.802347,22.621404 L 12.346542,36.405435 L 24.802347,50.189466 L 24.802347,22.621404 z" style="font-size:12;fill:#000;fill-opacity:1;fill-rule:evenodd;stroke:#000;stroke-width:3.125;stroke-linecap:round;stroke-linejoin:round;stroke-miterlimit:4;stroke-opacity:1"/><path id="path1849" d="M 26.076815,10.674340 C 25.262547,10.674340 24.480676,10.756519 23.690470,10.821645 L 23.690470,15.712179 C 24.502595,15.626758 25.226664,15.388107 26.076815,15.388107 C 30.612857,15.388107 34.683649,16.668590 37.478241,18.540440 C 40.272833,20.412288 41.720632,22.708364 41.720632,25.080793 C 41.720633,27.453221 40.272832,29.778757 37.478241,31.650606 C 34.683650,33.522455 30.612857,34.773478 26.076815,34.773478 C 25.226133,34.773478 24.503076,34.533248 23.690470,34.449406 L 23.690470,39.339940 C 24.480676,39.403924 25.262546,39.487246 26.076815,39.487246 C 31.467015,39.487247 36.385263,38.057283 40.100274,35.568926 C 43.815286,33.080570 46.434400,29.357075 46.434400,25.080793 C 46.434401,20.804509 43.815285,17.110477 40.100274,14.622120 C 36.385264,12.133764 31.467016,10.674340 26.076815,10.674340 z" style="color:#000;fill:#000;fill-opacity:1;fill-rule:evenodd;stroke:none;stroke-width:5;stroke-linecap:round;stroke-linejoin:round;stroke-miterlimit:4;stroke-dashoffset:0;stroke-opacity:1;marker:none;marker-start:none;marker-mid:none;marker-end:none"/></g></g></svg>