<svg xmlns="http://www.w3.org/2000/svg" xmlns:svg="http://www.w3.org/2000/svg" id="svg1" width="60" height="60" x="0" y="0" _SVGFile__filename="oldscale/actions/knotes_delete.svg" version="1.0"><metadata id="metadata14"><RDF id="RDF15"><Work id="Work16"><title id="title17">Part of the Flat Icon Collection (Thu Aug 26 14:38:01 2004)</title><description id="description19"/><subject id="subject20"><Bag id="Bag21"><li id="li22"/></Bag></subject><publisher id="publisher23"><Agent id="Agent24"><title id="title25"/></Agent></publisher><creator id="creator26"><Agent id="Agent27"><title id="title28">Danny Allen</title></Agent></creator><rights id="rights30"><Agent id="Agent31"><title id="title32">Danny Allen</title></Agent></rights><date id="date34"/><format id="format35">image/svg+xml</format><type id="type37" resource="http://purl.org/dc/dcmitype/StillImage"/><license id="license38" resource="http://creativecommons.org/licenses/LGPL/2.1/"><date id="date39"/></license><language id="language40">en</language></Work></RDF></metadata><path id="path1100" d="M 6.6826012,4.6877140 C 5.5772068,4.6877140 4.6873046,5.5839581 4.6873046,6.6972300 L 4.6873046,53.302769 C 4.6873046,54.416041 5.5772068,55.312286 6.6826012,55.312286 L 53.317399,55.312286 C 54.422793,55.312286 55.312695,54.416041 55.312695,53.302769 L 55.312695,6.6972300 C 55.312695,5.5839581 54.422793,4.6877140 53.317399,4.6877140 L 6.6826012,4.6877140 z" style="font-size:12;fill:none;fill-opacity:1;fill-rule:evenodd;stroke:#fff;stroke-width:8.125;stroke-linejoin:round;stroke-opacity:1;stroke-miterlimit:4;stroke-dasharray:none"/><path id="rect812" d="M 6.6826012,4.6877140 C 5.5772068,4.6877140 4.6873046,5.5839581 4.6873046,6.6972300 L 4.6873046,53.302769 C 4.6873046,54.416041 5.5772068,55.312286 6.6826012,55.312286 L 53.317399,55.312286 C 54.422793,55.312286 55.312695,54.416041 55.312695,53.302769 L 55.312695,6.6972300 C 55.312695,5.5839581 54.422793,4.6877140 53.317399,4.6877140 L 6.6826012,4.6877140 z" style="stroke-opacity:1;stroke-linejoin:round;stroke-width:3.1250002;stroke:#000;fill-rule:evenodd;fill-opacity:1;fill:#f6cfdc;font-size:12"/><g id="g2083" transform="matrix(0.970731,0.000000,0.000000,0.970731,0.878070,0.878070)"><path id="path1322" d="M 12.982682,11.651519 C 12.524822,11.633389 12.181582,11.757899 11.951282,11.993469 C 10.324892,13.657079 15.436292,21.389759 23.474492,30.014389 C 15.436292,38.639009 10.324892,46.371689 11.951282,48.035299 C 13.582862,49.704229 21.319822,44.576929 29.982982,36.511489 C 38.646142,44.576929 46.418662,49.704229 48.050242,48.035299 C 49.676632,46.371689 44.529662,38.639009 36.491462,30.014389 C 44.529662,21.389759 49.676632,13.657079 48.050242,11.993469 C 46.418662,10.324539 38.646142,15.451849 29.982982,23.517279 C 22.542642,16.590299 15.768512,11.761809 12.982682,11.651519 z" style="font-size:12;fill:none;fill-opacity:1;fill-rule:evenodd;stroke:#fff;stroke-width:8.369977;stroke-linecap:round;stroke-linejoin:round;stroke-miterlimit:4;stroke-opacity:1"/><path id="path1602" d="M 12.982682,11.651519 C 12.524822,11.633389 12.181582,11.757899 11.951282,11.993469 C 10.324892,13.657079 15.436292,21.389759 23.474492,30.014389 C 15.436292,38.639009 10.324892,46.371689 11.951282,48.035299 C 13.582862,49.704229 21.319822,44.576929 29.982982,36.511489 C 38.646142,44.576929 46.418662,49.704229 48.050242,48.035299 C 49.676632,46.371689 44.529662,38.639009 36.491462,30.014389 C 44.529662,21.389759 49.676632,13.657079 48.050242,11.993469 C 46.418662,10.324539 38.646142,15.451849 29.982982,23.517279 C 22.542642,16.590299 15.768512,11.761809 12.982682,11.651519 z" style="font-size:12;fill:#e71c02;fill-opacity:1;fill-rule:evenodd;stroke:#e71c02;stroke-width:3.2192221;stroke-linecap:round;stroke-linejoin:round;stroke-opacity:1"/></g></svg>