<svg xmlns="http://www.w3.org/2000/svg" xmlns:svg="http://www.w3.org/2000/svg" id="svg1" width="60" height="60" x="0" y="0" _SVGFile__filename="oldscale/actions/1downarrow.svg" version="1.0"><metadata id="metadata5"><RDF id="RDF6"><Work id="Work7"><title id="title8">Part of the Flat Icon Collection (Thu Aug 26 14:38:01 2004)</title><description id="description10"/><subject id="subject11"><Bag id="Bag12"><li id="li13"/></Bag></subject><publisher id="publisher14"><Agent id="Agent15"><title id="title16"/></Agent></publisher><creator id="creator17"><Agent id="Agent18"><title id="title19">Danny Allen</title></Agent></creator><rights id="rights21"><Agent id="Agent22"><title id="title23">Danny Allen</title></Agent></rights><date id="date25"/><format id="format26">image/svg+xml</format><type id="type28" resource="http://purl.org/dc/dcmitype/StillImage"/><license id="license29" resource="http://creativecommons.org/licenses/LGPL/2.1/"><date id="date30"/></license><language id="language31">en</language></Work></RDF></metadata><path id="path1711" d="M 55.311822,30.00001 C 55.311826,16.027889 43.972137,4.6881935 30.000016,4.6881892 C 16.027895,4.6881848 4.6881979,16.027874 4.6881936,29.999994 C 4.6881892,43.972116 16.027879,55.311812 30,55.311816 C 43.972121,55.311821 55.311818,43.972132 55.311822,30.00001 z" style="fill:none;fill-opacity:1;fill-rule:evenodd;stroke:#fff;stroke-width:8.125;stroke-linecap:round;stroke-linejoin:round;marker:none;marker-start:none;marker-mid:none;marker-end:none;stroke-miterlimit:4;stroke-dashoffset:0;stroke-opacity:1"/><path id="path1710" d="M 55.311822,30.00001 C 55.311826,16.027889 43.972137,4.6881935 30.000016,4.6881892 C 16.027895,4.6881848 4.6881979,16.027874 4.6881936,29.999994 C 4.6881892,43.972116 16.027879,55.311812 30,55.311816 C 43.972121,55.311821 55.311818,43.972132 55.311822,30.00001 z" style="fill:#7fbb55;fill-opacity:1;fill-rule:evenodd;stroke:#000;stroke-width:3.12499928;stroke-linecap:round;stroke-linejoin:round;marker:none;marker-start:none;marker-mid:none;marker-end:none;stroke-miterlimit:4;stroke-dashoffset:0;stroke-opacity:1"/><path id="path1088" d="M 10.943312,35.443957 L 49.056688,35.443966 L 30.000008,16.399961 L 10.943312,35.443957 z" style="fill:#000;fill-opacity:1;fill-rule:evenodd;stroke:#000;stroke-width:5;stroke-linecap:round;stroke-linejoin:round;marker:none;marker-start:none;marker-mid:none;marker-end:none;stroke-miterlimit:4;stroke-dashoffset:0;stroke-opacity:1"/></svg>