<svg xmlns="http://www.w3.org/2000/svg" xmlns:svg="http://www.w3.org/2000/svg" id="svg2" width="16" height="16" version="1.0"><metadata id="metadata7"/><g id="layer1"><path style="fill:#fff;stroke:#000;stroke-width:1px;stroke-linecap:butt;stroke-linejoin:round;stroke-opacity:1" id="path2997-3" d="M 1.1618277,14.849943 7.6510981,3.622477 14.106034,14.781274 Z"/><path style="fill:none;stroke:#6495ed;stroke-width:1px;stroke-linecap:butt;stroke-linejoin:bevel;stroke-opacity:1" id="path2999" d="m 4.5665235,9.1416307 6.1459235,2e-7 -2.8154513,5.5965651 z"/><path style="fill:none;stroke:#000;stroke-width:1px;stroke-linecap:butt;stroke-linejoin:round;stroke-opacity:1" id="path2997" d="M 1.1618278,14.849944 7.6510982,3.6224767 14.106034,14.781275 Z"/><g id="g1533" transform="matrix(0.17762325,0,0,0.17762325,5.418084,-0.10981342)"><path id="path1099" d="m 6.682581,4.6879174 c -1.105395,0 -1.995298,0.896237 -1.995298,2.0095 V 53.302583 c 0,1.113263 0.889903,2.0095 1.995298,2.0095 h 46.634831 c 1.105395,0 1.995298,-0.896237 1.995298,-2.0095 V 6.6974174 c 0,-1.113263 -0.889903,-2.0095 -1.995298,-2.0095 z" style="font-size:12px;fill:none;fill-opacity:1;fill-rule:evenodd;stroke:#fff;stroke-width:8.125;stroke-linejoin:round;stroke-miterlimit:4;stroke-dasharray:none;stroke-opacity:1"/><path id="rect812" d="m 6.6825844,4.6879174 c -1.1053951,0 -1.995298,0.896237 -1.995298,2.0095 V 53.302583 c 0,1.113263 0.8899029,2.0095 1.995298,2.0095 H 53.317416 c 1.105395,0 1.995298,-0.896237 1.995298,-2.0095 V 6.6974174 c 0,-1.113263 -0.889903,-2.0095 -1.995298,-2.0095 z" style="font-size:12px;fill:#b3d596;fill-opacity:1;fill-rule:evenodd;stroke:#000;stroke-width:3.12499905;stroke-linejoin:round;stroke-opacity:1"/><g id="g2087" transform="matrix(0.938666,0,0,0.938666,1.840017,1.84002)"><path id="path2085" d="M 25.256462,25.222705 V 14.469368 c 0,-1.504292 0.408428,-2.72653 1.225273,-3.666715 0.816845,-0.9636858 1.983765,-1.4455317 3.50076,-1.4455317 1.517005,0 2.683925,0.4818459 3.500771,1.4455317 0.84018,0.940185 1.26028,2.162423 1.26028,3.666715 v 10.753337 h 10.537308 c 1.54033,0 2.75393,0.42308 3.64079,1.26924 0.910205,0.822659 1.365303,1.986139 1.365303,3.490431 0,1.527793 -0.455098,2.714774 -1.365303,3.560935 -0.88686,0.84617 -2.10046,1.26925 -3.64079,1.26925 H 34.743546 v 10.71808 c 0,1.527793 -0.4201,2.761787 -1.26028,3.701971 -0.840181,0.940185 -2.007111,1.410268 -3.500771,1.410268 -1.49366,0 -2.66058,-0.470083 -3.50076,-1.410268 -0.816845,-0.940184 -1.225273,-2.174178 -1.225273,-3.701971 V 34.812561 H 14.719154 c -1.49366,0 -2.70726,-0.458337 -3.64079,-1.37502 -0.910205,-0.940175 -1.365305,-2.0919 -1.365305,-3.455165 0,-1.504292 0.443427,-2.667772 1.330297,-3.490431 0.910195,-0.84616 2.135458,-1.26924 3.675798,-1.26924 z" style="font-weight:900;font-size:12px;font-family:'VAG Rounded Black SSi';fill:#62b01e;fill-opacity:1;stroke:#fff;stroke-width:5.32670641;stroke-linecap:round;stroke-linejoin:round;stroke-miterlimit:4;stroke-opacity:1"/><path id="path838" d="M 25.256462,25.222705 V 14.469368 c 0,-1.504292 0.408428,-2.72653 1.225273,-3.666715 0.816845,-0.9636858 1.983765,-1.4455317 3.50076,-1.4455317 1.517005,0 2.683925,0.4818459 3.500771,1.4455317 0.84018,0.940185 1.26028,2.162423 1.26028,3.666715 v 10.753337 h 10.537308 c 1.54033,0 2.75393,0.42308 3.64079,1.26924 0.910205,0.822659 1.365303,1.986139 1.365303,3.490431 0,1.527793 -0.455098,2.714774 -1.365303,3.560935 -0.88686,0.84617 -2.10046,1.26925 -3.64079,1.26925 H 34.743546 v 10.71808 c 0,1.527793 -0.4201,2.761787 -1.26028,3.701971 -0.840181,0.940185 -2.007111,1.410268 -3.500771,1.410268 -1.49366,0 -2.66058,-0.470083 -3.50076,-1.410268 -0.816845,-0.940184 -1.225273,-2.174178 -1.225273,-3.701971 V 34.812561 H 14.719154 c -1.49366,0 -2.70726,-0.458337 -3.64079,-1.37502 -0.910205,-0.940175 -1.365305,-2.0919 -1.365305,-3.455165 0,-1.504292 0.443427,-2.667772 1.330297,-3.490431 0.910195,-0.84616 2.135458,-1.26924 3.675798,-1.26924 z" style="font-weight:900;font-size:12px;font-family:'VAG Rounded Black SSi';fill:#62b01e;fill-opacity:1;stroke-width:1"/></g></g></g></svg>