<svg xmlns="http://www.w3.org/2000/svg" xmlns:svg="http://www.w3.org/2000/svg" id="svg1" width="60" height="60" x="0" y="0" _SVGFile__filename="oldscale/actions/viewmag+.svg" version="1.0"><metadata id="metadata12"><RDF id="RDF13"><Work id="Work14"><title id="title15">Part of the Flat Icon Collection (Thu Aug 26 14:38:01 2004)</title><description id="description17"/><subject id="subject18"><Bag id="Bag19"><li id="li20"/></Bag></subject><publisher id="publisher21"><Agent id="Agent22"><title id="title23"/></Agent></publisher><creator id="creator24"><Agent id="Agent25"><title id="title26">Danny Allen</title></Agent></creator><rights id="rights28"><Agent id="Agent29"><title id="title30">Danny Allen</title></Agent></rights><date id="date32"/><format id="format33">image/svg+xml</format><type id="type35" resource="http://purl.org/dc/dcmitype/StillImage"/><license id="license36" resource="http://creativecommons.org/licenses/LGPL/2.1/"><date id="date37"/></license><language id="language38">en</language></Work></RDF></metadata><path id="path1096" d="M 20.233576,1.5001736 C 10.129714,1.5001745 1.9510963,9.7074408 1.9510936,19.811313 C 1.9510936,29.915182 10.129717,38.122451 20.233576,38.122451 C 24.382634,38.122451 28.195055,36.669399 31.266109,34.339868 C 39.726018,46.661 45.662361,49.277997 47.685957,47.321004 C 49.761773,45.295476 46.56633,39.515454 34.934068,30.643253 C 37.181959,27.603246 38.544715,23.87961 38.544715,19.811313 C 38.544715,9.7074417 30.337446,1.5001745 20.233576,1.5001736 z" style="font-size:12px;fill:none;fill-opacity:1;fill-rule:evenodd;stroke:#fff;stroke-width:7.4482336;stroke-linecap:round;stroke-linejoin:round;stroke-miterlimit:4;stroke-opacity:1"/><path id="path1201" d="M 26.594494,27.001005 C 37.555351,45.745081 45.296709,49.629348 47.676516,47.327871 C 50.138994,44.925049 45.994021,37.490866 28.034281,25.53285 L 26.594494,27.001005 z" style="font-size:12px;fill:#a49fcc;fill-opacity:1;fill-rule:evenodd;stroke:#000;stroke-width:2.86470509;stroke-linecap:round;stroke-linejoin:round;stroke-opacity:1"/><path id="path1202" d="M 38.551568,19.804066 C 38.551568,29.907933 30.351322,38.10817 20.247455,38.10817 C 10.143596,38.10817 1.9433542,29.907933 1.9433542,19.804066 C 1.9433542,9.7001979 10.143596,1.499961 20.247455,1.4999601 C 30.351322,1.499961 38.551568,9.7001979 38.551568,19.804066 z" style="font-size:12px;fill:#a49fcc;fill-opacity:1;fill-rule:evenodd;stroke:#000;stroke-width:2.86470509;stroke-linecap:round;stroke-linejoin:round;stroke-opacity:1"/><path id="path1203" d="M 34.656741,19.804072 C 34.656741,27.757989 28.201388,34.213342 20.247472,34.213342 C 12.293546,34.213342 5.8381956,27.757989 5.8381965,19.804072 C 5.8381956,11.850156 12.293546,5.3948014 20.247472,5.3948014 C 28.201388,5.3948014 34.656741,11.850156 34.656741,19.804072 z" style="font-size:12px;fill:#c0b8db;fill-opacity:1;fill-rule:evenodd;stroke:#000;stroke-width:2.29176474;stroke-linecap:round;stroke-linejoin:round;stroke-opacity:1"/></svg>