<svg xmlns="http://www.w3.org/2000/svg" xmlns:svg="http://www.w3.org/2000/svg" id="svg1" width="60" height="60" x="0" y="0" _SVGFile__filename="oldscale/actions/cancel.svg" version="1.0"><metadata id="metadata5"><RDF id="RDF6"><Work id="Work7"><title id="title8">Part of the Flat Icon Collection (Thu Aug 26 14:38:01 2004)</title><description id="description10"/><subject id="subject11"><Bag id="Bag12"><li id="li13"/></Bag></subject><publisher id="publisher14"><Agent id="Agent15"><title id="title16"/></Agent></publisher><creator id="creator17"><Agent id="Agent18"><title id="title19">Danny Allen</title></Agent></creator><rights id="rights21"><Agent id="Agent22"><title id="title23">Danny Allen</title></Agent></rights><date id="date25"/><format id="format26">image/svg+xml</format><type id="type28" resource="http://purl.org/dc/dcmitype/StillImage"/><license id="license29" resource="http://creativecommons.org/licenses/LGPL/2.1/"><date id="date30"/></license><language id="language31">en</language></Work></RDF></metadata><path id="path1709" d="M 6.5289660,4.6929655 C 5.8974720,4.6679667 5.4240570,4.8396876 5.1064160,5.1646031 C 2.8632360,7.4591284 9.9131040,18.124378 20.999736,30.019836 C 9.9131040,41.915305 2.8632360,52.580554 5.1064160,54.875077 C 7.3567630,57.176944 18.027919,50.105130 29.976524,38.980936 C 41.925132,50.105130 52.645340,57.176944 54.895680,54.875077 C 57.138870,52.580554 50.039950,41.915305 38.953314,30.019836 C 50.039950,18.124378 57.138870,7.4591284 54.895680,5.1646031 C 52.645340,2.8627436 41.925132,9.9345543 29.976524,21.058747 C 19.714493,11.504755 10.371313,4.8450779 6.5289660,4.6929655 z" style="font-size:12;fill:none;fill-opacity:1;fill-rule:evenodd;stroke:#fff;stroke-width:8.125;stroke-linecap:round;stroke-linejoin:round;stroke-miterlimit:4;stroke-opacity:1"/><path id="path1602" d="M 6.5289664,4.6929655 C 5.8974721,4.6679667 5.4240574,4.8396876 5.1064160,5.1646031 C 2.8632357,7.4591284 9.9131036,18.124378 20.999736,30.019836 C 9.9131036,41.915305 2.8632357,52.580554 5.1064160,54.875077 C 7.3567629,57.176944 18.027919,50.105130 29.976524,38.980936 C 41.925132,50.105130 52.645340,57.176944 54.895684,54.875077 C 57.138871,52.580554 50.039946,41.915305 38.953314,30.019836 C 50.039946,18.124378 57.138871,7.4591284 54.895684,5.1646031 C 52.645340,2.8627436 41.925132,9.9345543 29.976524,21.058747 C 19.714493,11.504755 10.371313,4.8450779 6.5289664,4.6929655 z" style="font-size:12;fill:#e71c02;fill-opacity:1;fill-rule:evenodd;stroke:#e71c02;stroke-width:3.1250005;stroke-linecap:round;stroke-linejoin:round;stroke-opacity:1"/></svg>