<svg xmlns="http://www.w3.org/2000/svg" xmlns:svg="http://www.w3.org/2000/svg" id="svg1" width="60" height="60" x="0" y="0" _SVGFile__filename="oldscale/actions/1downarrow.svg" version="1.0"><metadata id="metadata5"><RDF id="RDF6"><Work id="Work7"><title id="title8">Part of the Flat Icon Collection (Thu Aug 26 14:38:01 2004)</title><description id="description10"/><subject id="subject11"><Bag id="Bag12"><li id="li13"/></Bag></subject><publisher id="publisher14"><Agent id="Agent15"><title id="title16"/></Agent></publisher><creator id="creator17"><Agent id="Agent18"><title id="title19">Danny Allen</title></Agent></creator><rights id="rights21"><Agent id="Agent22"><title id="title23">Danny Allen</title></Agent></rights><date id="date25"/><format id="format26">image/svg+xml</format><type id="type28" resource="http://purl.org/dc/dcmitype/StillImage"/><license id="license29" resource="http://creativecommons.org/licenses/LGPL/2.1/"><date id="date30"/></license><language id="language31">en</language></Work></RDF></metadata><g id="g2072" transform="matrix(-1.000000,0.000000,0.000000,1.000000,60.00001,0.000000)"><path style="color:#000;fill:none;fill-opacity:1;fill-rule:evenodd;stroke:#fff;stroke-width:7.1269994;stroke-linecap:round;stroke-linejoin:round;stroke-miterlimit:4;stroke-dashoffset:0;stroke-opacity:1;marker:none;marker-start:none;marker-mid:none;marker-end:none" id="path1711" d="M 14.499750,20.805365 C 14.499750,33.061278 4.5529214,43.008106 -7.7029920,43.008106 C -19.958905,43.008106 -29.905734,33.061278 -29.905734,20.805365 C -29.905734,8.5494512 -19.958905,-1.3973770 -7.7029920,-1.3973770 C 4.5529214,-1.3973770 14.499750,8.5494512 14.499750,20.805365 z" transform="matrix(3.559753e-7,1.140031,-1.140031,3.559753e-7,53.71877,38.78165)"/><path style="color:#000;fill:#5e8fcb;fill-opacity:1;fill-rule:evenodd;stroke:#000;stroke-width:2.741153;stroke-linecap:round;stroke-linejoin:round;stroke-miterlimit:4;stroke-dashoffset:0;stroke-opacity:1;marker:none;marker-start:none;marker-mid:none;marker-end:none" id="path1710" d="M 14.499750,20.805365 C 14.499750,33.061278 4.5529214,43.008106 -7.7029920,43.008106 C -19.958905,43.008106 -29.905734,33.061278 -29.905734,20.805365 C -29.905734,8.5494512 -19.958905,-1.3973770 -7.7029920,-1.3973770 C 4.5529214,-1.3973770 14.499750,8.5494512 14.499750,20.805365 z" transform="matrix(3.559753e-7,1.140031,-1.140031,3.559753e-7,53.71877,38.78165)"/><path style="color:#000;fill:#000;fill-opacity:1;fill-rule:evenodd;stroke:#000;stroke-width:6.8531513;stroke-linecap:round;stroke-linejoin:round;stroke-miterlimit:4;stroke-dashoffset:0;stroke-opacity:1;marker:none;marker-start:none;marker-mid:none;marker-end:none" id="path1088" d="M -19.354581,10.963518 L -59.034686,10.963518 L -39.194633,-23.400460 L -19.354581,10.963518 z" transform="matrix(-2.150169e-7,-0.960516,0.554185,-2.524865e-7,29.36814,-7.647074)"/></g></svg>