<svg xmlns="http://www.w3.org/2000/svg" xmlns:svg="http://www.w3.org/2000/svg" id="svg1" width="60" height="60" x="0" y="0" _SVGFile__filename="oldscale/actions/viewmag+.svg" version="1.0"><metadata id="metadata12"><RDF id="RDF13"><Work id="Work14"><title id="title15">Part of the Flat Icon Collection (Thu Aug 26 14:38:01 2004)</title><description id="description17"/><subject id="subject18"><Bag id="Bag19"><li id="li20"/></Bag></subject><publisher id="publisher21"><Agent id="Agent22"><title id="title23"/></Agent></publisher><creator id="creator24"><Agent id="Agent25"><title id="title26">Danny Allen</title></Agent></creator><rights id="rights28"><Agent id="Agent29"><title id="title30">Danny Allen</title></Agent></rights><date id="date32"/><format id="format33">image/svg+xml</format><type id="type35" resource="http://purl.org/dc/dcmitype/StillImage"/><license id="license36" resource="http://creativecommons.org/licenses/LGPL/2.1/"><date id="date37"/></license><language id="language38">en</language></Work></RDF></metadata><path id="path1096" d="M 24.656250,4.6875000 C 13.637738,4.6875010 4.7187530,13.637728 4.7187500,24.656250 C 4.7187500,35.674771 13.637741,44.625000 24.656250,44.625000 C 29.180900,44.625000 33.338440,43.040411 36.687500,40.500000 C 45.913240,53.936500 52.386970,56.790399 54.593750,54.656250 C 56.857480,52.447361 53.372770,46.144104 40.687500,36.468750 C 43.138880,33.153546 44.625000,29.092829 44.625000,24.656250 C 44.625000,13.637729 35.674770,4.6875010 24.656250,4.6875000 z" transform="matrix(1.000310,0.000000,0.000000,1.000310,1.229048e-2,-1.988434e-4)" style="font-size:12;fill:none;fill-opacity:1;fill-rule:evenodd;stroke:#fff;stroke-width:8.1224833;stroke-linecap:round;stroke-linejoin:round;stroke-miterlimit:4;stroke-opacity:1"/><path id="path1201" d="M 31.913680,32.618870 C 44.251640,53.717920 52.965610,58.090200 55.644410,55.499570 C 58.416270,52.794860 53.750530,44.426660 33.534360,30.966260 L 31.913680,32.618870 z" transform="matrix(0.969106,0.000000,0.000000,0.969106,0.687334,0.895520)" style="font-size:12;fill:#a49fcc;fill-opacity:1;fill-rule:evenodd;stroke:#000;stroke-width:3.2246218;stroke-linecap:round;stroke-linejoin:round;stroke-opacity:1"/><path id="path1202" d="M 45.373020,24.517720 C 45.373020,35.891020 36.142510,45.121520 24.769210,45.121520 C 13.395920,45.121520 4.1654130,35.891020 4.1654130,24.517720 C 4.1654130,13.144420 13.395920,3.9139190 24.769210,3.9139180 C 36.142510,3.9139190 45.373020,13.144420 45.373020,24.517720 z" transform="matrix(0.969106,0.000000,0.000000,0.969106,0.687334,0.895520)" style="stroke-opacity:1;stroke-linejoin:round;stroke-linecap:round;stroke-width:3.2246218;stroke:#000;fill-rule:evenodd;fill-opacity:1;fill:#a49fcc;font-size:12"/><path id="path1203" d="M 40.385068,24.648355 C 40.385068,33.322298 33.345346,40.362020 24.671403,40.362020 C 15.997450,40.362020 8.9577310,33.322298 8.9577320,24.648355 C 8.9577310,15.974412 15.997450,8.9346881 24.671403,8.9346881 C 33.345346,8.9346881 40.385068,15.974412 40.385068,24.648355 z" transform="matrix(1.000310,0.000000,0.000000,1.000310,1.229048e-2,-1.988434e-4)" style="stroke-opacity:1;stroke-linejoin:round;stroke-linecap:round;stroke-width:2.4992261;stroke:#000;fill-rule:evenodd;fill-opacity:1;fill:#c0b8db;font-size:12"/><path id="path839" d="M 21.983344,21.947801 L 21.983344,15.852321 C 21.983344,14.999621 22.216504,14.306801 22.682834,13.773861 C 23.149154,13.227601 23.815324,12.954471 24.681344,12.954471 C 25.547374,12.954471 26.213544,13.227601 26.679864,13.773861 C 27.159514,14.306801 27.399334,14.999621 27.399334,15.852321 L 27.399334,21.947801 L 33.414874,21.947801 C 34.294224,21.947801 34.987044,22.187631 35.493334,22.667271 C 36.012944,23.133591 36.272754,23.793101 36.272754,24.645801 C 36.272754,25.511831 36.012944,26.184661 35.493334,26.664311 C 34.987044,27.143951 34.294224,27.383781 33.414874,27.383781 L 27.399334,27.383781 L 27.399334,33.459271 C 27.399334,34.325301 27.159514,35.024781 26.679864,35.557711 C 26.200224,36.090651 25.534044,36.357121 24.681344,36.357121 C 23.828644,36.357121 23.162474,36.090651 22.682834,35.557711 C 22.216504,35.024781 21.983344,34.325301 21.983344,33.459271 L 21.983344,27.383781 L 15.967804,27.383781 C 15.115104,27.383781 14.422284,27.123971 13.889344,26.604351 C 13.369734,26.071421 13.109924,25.418571 13.109924,24.645801 C 13.109924,23.793101 13.363074,23.133591 13.869364,22.667271 C 14.388974,22.187631 15.088454,21.947801 15.967804,21.947801 L 21.983344,21.947801 z" style="font-size:12;font-weight:900;fill:#000;fill-opacity:1;stroke-width:1;font-family:VAG Rounded Black SSi"/></svg>