<svg xmlns="http://www.w3.org/2000/svg" xmlns:svg="http://www.w3.org/2000/svg" id="svg2" width="16" height="16" version="1.1"><metadata id="metadata7"/><g id="layer1" transform="translate(0,-1036.3622)"><path style="fill:none;stroke:#12196f;stroke-width:.3125;stroke-miterlimit:4;stroke-opacity:1;stroke-dasharray:.15625,.15625;stroke-dashoffset:0" id="path2840" d="m 3.6346532,1028.1136 c -6.4657724,0 -11.7073167,5.2414 -11.7073167,11.7073 0,6.4657 5.2415443,11.7073 11.7073167,11.7073 6.4657728,0 11.7073178,-5.2417 11.7073178,-11.7073 0,-6.4659 -5.241545,-11.7073 -11.7073178,-11.7073 z"/><path style="fill:none;stroke:#12196f;stroke-width:.3125;stroke-miterlimit:4;stroke-opacity:1;stroke-dasharray:.15625,.15625;stroke-dashoffset:0" id="path3812" d="m 3.6094919,1030.0332 c 5.4163489,0 9.8129171,4.3839 9.8129171,9.7879 0,5.4038 -4.3965682,9.7876 -9.8129171,9.7876 -5.4163494,0 -9.7625937,-4.3838 -9.7625937,-9.7876 0,-5.404 4.3462443,-9.7879 9.7625937,-9.7879 z"/><path style="fill:none;stroke:#12196f;stroke-width:.3125;stroke-miterlimit:4;stroke-opacity:1;stroke-dasharray:.15625,.15625;stroke-dashoffset:0" id="path3812-2" d="m 3.6196877,1033.9992 c 3.221654,0 5.8367391,2.6075 5.8367391,5.8218 0,3.2142 -2.6150851,5.8217 -5.8367391,5.8217 -3.22165398,0 -5.8068076,-2.6075 -5.8068076,-5.8217 0,-3.2143 2.58515362,-5.8218 5.8068076,-5.8218 z"/><path style="fill:none;stroke:#12196f;stroke-width:.3125;stroke-miterlimit:4;stroke-opacity:1;stroke-dasharray:.15625,.15625;stroke-dashoffset:0" id="path3812-2-3" d="m 3.6146057,1032.0218 c 4.3158416,0 7.8191033,3.4932 7.8191033,7.7992 0,4.3058 -3.5032617,7.799 -7.8191033,7.799 -4.31584298,0 -7.7790067,-3.4932 -7.7790067,-7.799 0,-4.306 3.46316372,-7.7992 7.7790067,-7.7992 z"/></g></svg>