<svg xmlns="http://www.w3.org/2000/svg" xmlns:svg="http://www.w3.org/2000/svg" id="svg2" width="16" height="16" version="1.1"><metadata id="metadata7"/><g id="layer1" transform="translate(0,-1036.3622)"><path style="fill:#fc0;stroke:#fc0;stroke-width:1;stroke-miterlimit:4;stroke-dasharray:none" id="path3976" d="m -159.125,-42 11.30902,-11.617522 -14.99729,6.15971 14.894,-6.405416 -16.2129,-0.04839 16.21151,-0.218144 -14.96026,-6.249112 15.06096,6.002338 -11.43004,-11.49847 11.61752,11.309019 -6.15971,-14.997289 6.40542,14.894004 0.0484,-16.212908 0.21815,16.211512 6.24911,-14.960257 -6.00234,15.060964 L -135.375,-66 l -11.30902,11.617522 14.99729,-6.15971 -14.894,6.405416 16.2129,0.04839 -16.21151,0.218144 14.96026,6.249112 -15.06096,-6.002338 11.43004,11.49847 -11.61752,-11.309019 6.15971,14.997289 -6.40542,-14.894004 -0.0484,16.212908 -0.21815,-16.211512 -6.24911,14.960257 6.00234,-15.060964 z" transform="translate(161.5,1092.1122)"/><path style="fill:#fc0;stroke:none" id="path3002-2" d="M 10.549098,10.869739 A 5.0981965,4.5210419 0 0 1 5.4509015,6.348697 l 5.0981965,2e-7 z" transform="matrix(2.1576257,0,0,2.4330674,-6.6637496,1020.9819)"/><path style="fill:#ff0;stroke:none" id="path3002" d="M 10.549098,10.869739 A 5.0981965,4.5210419 0 0 1 5.4509015,6.348697 l 5.0981965,2e-7 z" transform="matrix(1.9614779,0,0,2.2118794,-4.5945672,1022.3862)"/></g></svg>