<svg xmlns="http://www.w3.org/2000/svg" xmlns:svg="http://www.w3.org/2000/svg" id="svg2" width="16" height="16" version="1.0"><metadata id="metadata7"/><g id="layer1"><path style="fill:none;fill-rule:evenodd;stroke:#e6e6e6;stroke-width:1.5;stroke-linecap:square;stroke-linejoin:miter;stroke-miterlimit:4;stroke-dasharray:none;stroke-opacity:1" id="path3530-3" d="M 1.1168042,0.6560861 V 14.98031 H 15.004017"/><ellipse style="fill:none;fill-opacity:1;stroke:#e6e6e6;stroke-width:2.16939306;stroke-linecap:square;stroke-miterlimit:4;stroke-dasharray:none;stroke-dashoffset:0;stroke-opacity:1" id="path819-8" cx="12.411" cy="7.515" rx="2.225" ry="2.211"/><path style="fill:none;fill-opacity:1;stroke:#e6e6e6;stroke-width:1.5;stroke-linecap:square;stroke-linejoin:miter;stroke-miterlimit:4;stroke-dasharray:none;stroke-opacity:1" id="path8539-9-5" d="m 12.422205,7.7473852 -1.771145,4.1990068 1.771145,-0.557214 1.751242,0.557214 z"/><path style="fill:none;fill-opacity:1;stroke:#e6e6e6;stroke-width:1.5;stroke-linecap:square;stroke-linejoin:miter;stroke-miterlimit:4;stroke-dasharray:none;stroke-opacity:1" id="path8539-9-3-0" d="M 12.242656,7.4087329 8.0436506,9.1798773 8.6008646,7.4087329 8.0436506,5.6574908 Z"/><path style="fill:none;fill-rule:evenodd;stroke:#d38d5f;stroke-width:1px;stroke-linecap:butt;stroke-linejoin:miter;stroke-opacity:1" id="path4200" d="M 1.0987124,14.695279 L 13.184549,1.9914163 L 13.184549,1.9914163 L 13.184549,1.9914163"/><path style="fill:none;fill-rule:evenodd;stroke:#000;stroke-width:1px;stroke-linecap:butt;stroke-linejoin:miter;stroke-opacity:1" id="path3530" d="M 1.1168038,0.65608633 L 1.1168038,14.98031 L 15.004017,14.98031"/><ellipse style="fill:#87aade;fill-opacity:1;stroke:#2c5aa0;stroke-width:1.44626212;stroke-linecap:butt;stroke-miterlimit:4;stroke-dasharray:none;stroke-dashoffset:0;stroke-opacity:1" id="path819" cx="12.411" cy="7.515" rx="2.225" ry="2.211"/><path style="fill:#000;fill-opacity:1;stroke:none;stroke-width:1px;stroke-linecap:butt;stroke-linejoin:miter;stroke-opacity:1" id="path8539-9" d="m 12.422205,7.7473854 -1.771145,4.1990066 1.771145,-0.557214 1.751242,0.557214 z"/><path style="fill:#000;fill-opacity:1;stroke:none;stroke-width:1px;stroke-linecap:butt;stroke-linejoin:miter;stroke-opacity:1" id="path8539-9-3" d="M 12.242656,7.4087331 8.0436504,9.1798775 8.6008644,7.4087331 8.0436504,5.657491 Z"/></g></svg>