<svg xmlns="http://www.w3.org/2000/svg" xmlns:svg="http://www.w3.org/2000/svg" id="svg2" width="60" height="60" version="1.0"><metadata id="metadata7"/><g id="layer1"><path style="fill:#7a8db2;fill-opacity:1;fill-rule:evenodd;stroke:#000;stroke-width:2;stroke-linecap:butt;stroke-linejoin:miter;stroke-opacity:1;opacity:1;color:#000;marker:none;marker-start:none;marker-mid:none;marker-end:none;stroke-miterlimit:4;stroke-dasharray:none;stroke-dashoffset:0;visibility:visible;display:inline;overflow:visible;enable-background:accumulate" id="path3157" d="M 23.370745,42.699064 C 23.370745,42.699064 49.418387,21.163844 50.07509,15.746037 C 50.731793,10.328231 44.657283,3.9253682 44.657283,3.9253682 L 21.191788,38.214809"/><path style="fill:none;fill-opacity:1;fill-rule:evenodd;stroke:#00134c;stroke-width:3;stroke-linecap:butt;stroke-linejoin:miter;stroke-miterlimit:4;stroke-dasharray:none;stroke-dashoffset:0;stroke-opacity:1" id="path2383" d="M 26.394849,51.437767 A 5.8583694,8.0472107 0 1 1 14.678111,51.437767 A 5.8583694,8.0472107 0 1 1 26.394849,51.437767 z" transform="matrix(1.2751,0,0,1.2751,-10.925532,-20.45918)"/><path style="fill:#969696;fill-opacity:1;fill-rule:evenodd;stroke:#000;stroke-width:2;stroke-linecap:butt;stroke-linejoin:miter;stroke-miterlimit:4;stroke-dasharray:none;stroke-dashoffset:0;stroke-opacity:1" id="path3173" d="M 27.296137,33.347641 A 0.45064378,0.51502144 0 1 1 26.39485,33.347641 A 0.45064378,0.51502144 0 1 1 27.296137,33.347641 z" transform="matrix(1.2751,0,0,1.2751,-3.6104507,-11.845102)"/><path style="fill:#7a8db2;fill-opacity:1;fill-rule:evenodd;stroke:#000;stroke-width:2;stroke-linecap:butt;stroke-linejoin:miter;stroke-opacity:1;stroke-miterlimit:4;stroke-dasharray:none" id="path3203" d="M 36.998419,42.699064 C 36.998419,42.699064 10.950777,21.163844 10.294073,15.746037 C 9.63737,10.328231 15.71188,3.9253682 15.71188,3.9253682 L 39.177376,38.214809"/><path style="fill:none;fill-opacity:1;fill-rule:evenodd;stroke:#00134c;stroke-width:3;stroke-linecap:butt;stroke-linejoin:miter;stroke-miterlimit:4;stroke-dasharray:none;stroke-dashoffset:0;stroke-opacity:1" id="path3205" d="M 26.394849,51.437767 A 5.8583694,8.0472107 0 1 1 14.678111,51.437767 A 5.8583694,8.0472107 0 1 1 26.394849,51.437767 z" transform="matrix(-1.2751,0,0,1.2751,71.294696,-20.45918)"/><path style="fill:#969696;fill-opacity:1;fill-rule:evenodd;stroke:#000;stroke-width:2;stroke-linecap:butt;stroke-linejoin:miter;stroke-miterlimit:4;stroke-dasharray:none;stroke-dashoffset:0;stroke-opacity:1" id="path3207" d="M 27.296137,33.347641 A 0.45064378,0.51502144 0 1 1 26.39485,33.347641 A 0.45064378,0.51502144 0 1 1 27.296137,33.347641 z" transform="matrix(-1.2751,0,0,1.2751,63.979614,-11.845102)"/></g></svg>