<svg xmlns="http://www.w3.org/2000/svg" xmlns:svg="http://www.w3.org/2000/svg" id="svg1" width="60" height="60" x="0" y="0" _SVGFile__filename="oldscale/filesystems/folder_inbox.svg" version="1.0"><metadata id="metadata18"><RDF id="RDF19"><Work id="Work20"><title id="title21">Part of the Flat Icon Collection (Thu Aug 26 14:40:13 2004)</title><description id="description23"/><subject id="subject24"><Bag id="Bag25"><li id="li26"/></Bag></subject><publisher id="publisher27"><Agent id="Agent28"><title id="title29"/></Agent></publisher><creator id="creator30"><Agent id="Agent31"><title id="title32">Danny Allen</title></Agent></creator><rights id="rights34"><Agent id="Agent35"><title id="title36">Danny Allen</title></Agent></rights><date id="date38"/><format id="format39">image/svg+xml</format><type id="type41" resource="http://purl.org/dc/dcmitype/StillImage"/><license id="license42" resource="http://creativecommons.org/licenses/LGPL/2.1/"><date id="date43"/></license><language id="language44">en</language></Work></RDF></metadata><path style="fill:none;stroke:#fff;stroke-width:2;stroke-linecap:butt;stroke-linejoin:miter;stroke-miterlimit:4;stroke-opacity:1;stroke-dasharray:none" id="path3623" d="M 7.4375,4.53125 C 5.9149187,4.7084032 4.4152665,5.1004761 3,5.75 A 1.3604939,1.3604939 0 0 0 2.75,8.09375 c 0.7757637,0.5802682 1.5898537,1.4601748 2.6875,2.34375 3.5133112,2.828115 5.006178,5.103803 5.4375,6.65625 0.431322,1.552447 0.0041,2.422904 -0.75,3.1875 -0.7864422,0.797359 -2.0119029,1.514144 -3.625,1.25 C 4.8869029,21.267106 2.6394331,19.94466 0,16.09375 -0.78732294,14.945049 -1.6748038,14.1768 -2.1875,13.46875 a 1.3604939,1.3604939 0 0 0 -2.34375,0.3125 c -2.2615417,5.62997 -1.0748736,12.362402 3.46875,17.03125 4.2032406,4.319085 10.173022,5.616887 15.4375,4 L 40.46875,61.625 a 1.3604939,1.3604939 0 0 0 0.6875,0.40625 l 3.65625,0.75 c 2.178363,0.434458 4.026675,-0.223043 5.21875,-1.3125 1.192075,-1.089457 1.836331,-2.482774 2.3125,-3.59375 0.341905,-0.797717 0.228552,-1.34219 0.15625,-2 -0.0723,-0.65781 -0.193725,-1.378327 -0.34375,-2.03125 C 51.856201,52.537903 51.5,51.40625 51.5,51.40625 A 1.3604939,1.3604939 0 0 0 51.15625,50.875 L 24.46875,23.4375 C 25.421782,18.50009 24.120776,13.131986 20.3125,9.21875 16.792868,5.6021142 12.005835,3.9997214 7.4375,4.53125 z" transform="translate(6.719228,-3.4281775)"/><path style="fill:#ac9393;fill-rule:evenodd;stroke:#000;stroke-width:2;stroke-linecap:butt;stroke-linejoin:miter;stroke-miterlimit:4;stroke-opacity:1;stroke-dasharray:none" id="rect3366" d="M 26.13597,6.8428268 C 21.829973,2.4181532 15.483785,1.3426128 10.356438,3.6957629 c 0.919893,0.6880753 1.708921,1.5690705 2.703612,2.3697696 7.278525,5.8590035 6.858662,9.7818705 4.811178,11.8577735 -2.047483,2.075905 -6.68481,3.710859 -12.2123866,-4.353829 C 4.9956947,12.60195 4.1519729,11.83814 3.5142525,10.957427 1.4549299,16.083983 2.5237383,22.271936 6.6927947,26.555894 c 4.0731083,4.185366 9.9425943,5.347153 14.9012573,3.46965 l 26.625361,27.359173 3.669006,0.731758 c 3.661624,0.730284 5.078406,-1.966731 5.992421,-4.099268 0.474822,-1.107832 -0.899998,-5.515541 -0.899998,-5.515541 L 29.838871,20.611645 C 31.001676,15.90979 29.811147,10.619299 26.13597,6.8428268 z"/><path style="fill:none;stroke:#000;stroke-width:2;stroke-linecap:butt;stroke-linejoin:miter;stroke-miterlimit:4;stroke-opacity:1;stroke-dasharray:none" id="path3378" d="M 49.252412,53.723114 25.902888,29.864677"/><path style="fill:none;stroke:#000;stroke-width:2;stroke-linecap:butt;stroke-linejoin:miter;stroke-miterlimit:4;stroke-opacity:1;stroke-dasharray:none" id="path3378-7" d="M 53.965197,49.623028 30.151879,25.055423"/></svg>