<svg xmlns="http://www.w3.org/2000/svg" xmlns:svg="http://www.w3.org/2000/svg" xmlns:xlink="http://www.w3.org/1999/xlink" id="svg2383" width="16" height="16" version="1.1"><defs id="defs2385"><linearGradient id="linearGradient3187"><stop style="stop-color:#a29ec2;stop-opacity:1" id="stop3189" offset="0"/><stop style="stop-color:#fff;stop-opacity:1" id="stop3191" offset="1"/></linearGradient><linearGradient id="linearGradient3179"><stop style="stop-color:#000;stop-opacity:1" id="stop3181" offset="0"/><stop style="stop-color:#8d8d8d;stop-opacity:1" id="stop3183" offset="1"/></linearGradient><radialGradient id="radialGradient3185" cx="10.991" cy="3.659" r="4.304" fx="10.991" fy="3.659" gradientTransform="matrix(1.602965,-0.5526302,0.3225389,0.93556,-7.9066022,6.4077473)" gradientUnits="userSpaceOnUse" xlink:href="#linearGradient3179"/><linearGradient id="linearGradient3193" x1="-2.545" x2="-2.459" y1="11.125" y2="12.985" gradientTransform="matrix(0.7269846,-0.6866538,0.6866538,0.7269846,0.4504951,-0.8559406)" gradientUnits="userSpaceOnUse" xlink:href="#linearGradient3187"/></defs><metadata id="metadata2388"/><g id="layer1"><path style="fill:url(#radialGradient3185);fill-opacity:1;fill-rule:evenodd;stroke:#000;stroke-width:.5;stroke-linecap:butt;stroke-linejoin:miter;stroke-miterlimit:4;stroke-dasharray:none;stroke-opacity:1" id="path2393" d="M 15.36188,4.9628711 A 4.0544553,3.739109 0 1 1 7.2529693,4.9628711 A 4.0544553,3.739109 0 1 1 15.36188,4.9628711 z" transform="matrix(0.8735538,-0.4867274,0.4867274,0.8735538,-0.5352906,5.275229)"/><path style="fill:none;fill-rule:evenodd;stroke:#000;stroke-width:1px;stroke-linecap:butt;stroke-linejoin:miter;stroke-opacity:1" id="path3197" d="M 4.279703,11.585148 C 3.5313381,11.385308 2.3256341,13.190338 1.7066369,13.829916 C 1.1235096,14.623306 2.0116873,15.498428 2.7139747,15.454668 C 3.2042277,15.427373 4.2264689,15.491121 4.7209554,15.551907 C 5.9622244,15.604737 7.3711384,15.155648 8.5512091,14.63269 C 10.05573,13.856879 10.910365,12.213124 12.497488,11.558779 C 13.210437,11.225454 14.053944,11.069855 14.813305,11.338686 C 14.994808,11.454343 15.048193,11.711994 14.956436,11.900495"/><path style="fill:url(#linearGradient3193);fill-opacity:1;stroke:#000;stroke-width:.5;stroke-miterlimit:3.29999995;stroke-opacity:1" id="rect2395" d="M 2.3911047,10.646504 L 7.8604041,5.4806242 C 8.7180326,6.6729761 9.4844674,7.3148834 10.177709,7.6584477 L 4.6183103,13.004526 C 3.1471773,12.582884 2.6741845,11.662173 2.3911047,10.646504 z"/></g></svg>